<svg width="156" height="30" viewBox="0 0 156 30" fill="none" xmlns="http://www.w3.org/2000/svg">
<path d="M1.16797 17.1064C2.02881 17.2394 2.86349 17.4521 3.66504 17.7363L3.71777 17.7539C4.16355 17.9114 4.59723 18.0915 5.02051 18.2939C5.26386 18.4085 5.50116 18.5293 5.73633 18.6602C6.32321 18.9792 6.88531 19.3415 7.41699 19.7402C7.91803 20.1145 8.3911 20.5214 8.83691 20.959C8.90427 21.0243 8.97366 21.0937 9.04102 21.1631C9.47865 21.6089 9.88552 22.084 10.2598 22.583C10.6585 23.1167 11.0208 23.6768 11.3418 24.2637H11.3438C11.4705 24.4988 11.5915 24.7362 11.708 24.9795C11.9084 25.4027 12.0886 25.8365 12.248 26.2822L12.2295 26.3008L12.2686 26.3389C12.5508 27.1384 12.7606 27.9732 12.8936 28.832C12.9017 28.8872 12.9098 28.9448 12.918 29H8.83887C8.80413 28.8222 8.76273 28.6463 8.71777 28.4746C8.61146 28.0657 8.48055 27.6647 8.3252 27.2783C8.06957 26.6403 7.75022 26.0342 7.37598 25.4678C7.2657 25.3024 7.15172 25.1388 7.03125 24.9795C6.46069 24.2188 5.78126 23.5393 5.02051 22.9688C4.86122 22.8483 4.69763 22.7342 4.53223 22.626C3.96577 22.2477 3.35785 21.9285 2.71777 21.6729C2.33126 21.5174 1.93235 21.3865 1.52539 21.2822C1.3516 21.2372 1.17584 21.196 1 21.1592V17.082C1.05519 17.0902 1.11278 17.0983 1.16797 17.1064ZM29.1436 21.1592C28.9678 21.196 28.7919 21.2373 28.6182 21.2822C28.2113 21.3865 27.8122 21.5175 27.4258 21.6729C26.7858 21.9285 26.1787 22.2477 25.6123 22.626C25.4467 22.7343 25.2825 22.8481 25.123 22.9688C24.3623 23.5393 23.6838 24.2188 23.1133 24.9795C22.9927 25.1389 22.878 25.3022 22.7676 25.4678C22.3933 26.0342 22.074 26.6403 21.8184 27.2783C21.663 27.6647 21.5321 28.0658 21.4258 28.4746C21.3808 28.6463 21.3404 28.8222 21.3057 29H17.2256C17.2338 28.9448 17.2418 28.8872 17.25 28.832C17.3829 27.9731 17.5938 27.1384 17.876 26.3389L17.915 26.3008L17.8965 26.2822C18.056 25.8364 18.2361 25.4028 18.4365 24.9795C18.5531 24.7362 18.6731 24.5008 18.7998 24.2637C19.1228 23.6769 19.4851 23.1166 19.8838 22.583C20.258 22.084 20.6649 21.6089 21.1025 21.1631C21.17 21.0936 21.2401 21.0244 21.3076 20.959C21.7534 20.5214 22.2256 20.1144 22.7266 19.7402C23.2582 19.3415 23.8204 18.9791 24.4072 18.6602C24.6424 18.5293 24.8797 18.4084 25.123 18.2939C25.5463 18.0915 25.98 17.9114 26.4258 17.7539L26.4443 17.7705L26.4795 17.7363C27.2811 17.4521 28.1157 17.2394 28.9766 17.1064C29.0316 17.0983 29.0886 17.0902 29.1436 17.082V21.1592ZM82.5205 10.5107C83.8975 10.5107 85.1335 10.8124 86.2275 11.416C87.3402 12.0007 88.2171 12.8398 88.8584 13.9336C89.5185 15.0275 89.8486 16.3386 89.8486 17.8662C89.8486 19.2808 89.528 20.5454 88.8867 21.6582C88.2643 22.7708 87.3874 23.6478 86.2559 24.2891C85.143 24.9115 83.8596 25.2227 82.4072 25.2227C81.0305 25.2226 79.7951 24.9209 78.7012 24.3174C77.6074 23.7139 76.7399 22.8652 76.0986 21.7715C75.4762 20.6586 75.165 19.3563 75.165 17.8662C75.1651 16.3386 75.4952 15.0275 76.1553 13.9336C76.8154 12.8398 77.7017 12.0007 78.8145 11.416C79.9272 10.8125 81.1626 10.5108 82.5205 10.5107ZM125.552 10.5107C126.91 10.5108 128.032 10.7653 128.918 11.2744C129.823 11.7648 130.502 12.4534 130.955 13.3398C131.427 14.2263 131.663 15.2544 131.663 16.4238V20.6963C131.682 21.2051 131.804 21.5725 132.03 21.7988C132.275 22.0252 132.653 22.1481 133.162 22.167V24.8828C132.37 24.8828 131.691 24.7987 131.125 24.6289C130.559 24.4592 130.087 24.2038 129.71 23.8643C129.352 23.5248 129.059 23.0819 128.833 22.5352C128.38 23.2895 127.711 23.9309 126.824 24.459C125.957 24.9681 124.966 25.2227 123.854 25.2227C122.986 25.2226 122.175 25.0627 121.421 24.7422C120.685 24.4027 120.09 23.9118 119.638 23.2705C119.204 22.6292 118.987 21.8649 118.987 20.9785C118.987 19.9225 119.251 19.0644 119.779 18.4043C120.307 17.7441 121.024 17.2627 121.93 16.9609C122.835 16.6403 123.835 16.4805 124.929 16.4805H128.438C128.438 15.7261 128.314 15.1131 128.069 14.6416C127.824 14.1512 127.485 13.7928 127.051 13.5664C126.617 13.3213 126.108 13.1983 125.523 13.1982C124.769 13.1982 124.109 13.3686 123.543 13.708C122.977 14.0475 122.628 14.6036 122.496 15.377H119.271C119.365 14.3584 119.704 13.4902 120.289 12.7734C120.893 12.0381 121.656 11.4817 122.58 11.1045C123.504 10.7084 124.495 10.5107 125.552 10.5107ZM40.2256 24.8838H37V5.0791H40.2256V24.8838ZM100.002 5.0791C102.001 5.0791 103.539 5.53213 104.614 6.4375C105.708 7.34277 106.255 8.53099 106.255 10.002C106.255 11.0959 105.982 12.002 105.435 12.7188C104.888 13.4354 104.208 13.9443 103.397 14.2461C104.114 14.5102 104.755 14.8875 105.321 15.3779C105.887 15.8683 106.331 16.4434 106.651 17.1035C106.991 17.7637 107.16 18.4901 107.16 19.2822C107.16 20.3384 106.915 21.2909 106.425 22.1396C105.934 22.9884 105.208 23.658 104.246 24.1484C103.303 24.6388 102.124 24.8838 100.709 24.8838H92.7305V5.0791H100.002ZM51.3467 10.5107C52.9875 10.5107 54.3174 11.0292 55.3359 12.0664C56.3545 13.1038 56.8643 14.6322 56.8643 16.6504V24.8828H53.6953V17.0459C53.6953 15.8577 53.4125 14.9241 52.8467 14.2451C52.2808 13.5661 51.4505 13.2266 50.3564 13.2266C49.2626 13.2266 48.3952 13.5946 47.7539 14.3301C47.1315 15.0468 46.8203 16.0276 46.8203 17.2725V24.8828H43.623V10.8496H46.7354L46.792 12.7734C47.2635 12.038 47.9144 11.4817 48.7441 11.1045C49.5739 10.7085 50.4415 10.5108 51.3467 10.5107ZM67.3721 10.5107C69.0131 10.5107 70.3437 11.029 71.3623 12.0664C72.3808 13.1038 72.8896 14.6323 72.8896 16.6504V24.8828H69.7207V17.0459C69.7207 15.8577 69.4379 14.9241 68.8721 14.2451C68.3062 13.5661 67.4758 13.2266 66.3818 13.2266C65.288 13.2266 64.4205 13.5946 63.7793 14.3301C63.1568 15.0468 62.8457 16.0276 62.8457 17.2725V24.8828H59.6484V10.8496H62.7607L62.8174 12.7734C63.2889 12.038 63.9397 11.4817 64.7695 11.1045C65.5993 10.7085 66.4669 10.5108 67.3721 10.5107ZM117.635 13.877H116.758C115.475 13.877 114.523 14.1977 113.9 14.8389C113.278 15.4801 112.967 16.4801 112.967 17.8379V24.8828H109.77V10.8496H112.882L112.938 13.1416C113.41 12.3118 114.042 11.6704 114.834 11.2178C115.645 10.7463 116.579 10.5108 117.635 10.5107V13.877ZM138.584 24.8828H135.358V10.8496H138.584V24.8828ZM149.462 10.5107C151.103 10.5108 152.433 11.0291 153.451 12.0664C154.47 13.1038 154.979 14.6322 154.979 16.6504V24.8828H151.811V17.0459C151.811 15.8577 151.527 14.9241 150.961 14.2451C150.395 13.5663 149.566 13.2266 148.472 13.2266C147.378 13.2266 146.509 13.5945 145.868 14.3301C145.246 15.0468 144.935 16.0277 144.935 17.2725V24.8828H141.737V10.8496H144.85L144.906 12.7734C145.378 12.038 146.029 11.4817 146.858 11.1045C147.688 10.7084 148.557 10.5107 149.462 10.5107ZM125.155 18.6309C124.665 18.6309 124.193 18.6961 123.74 18.8281C123.288 18.9602 122.929 19.1777 122.665 19.4795C122.401 19.7624 122.27 20.1589 122.27 20.668C122.27 21.3468 122.505 21.8464 122.977 22.167C123.448 22.4687 124.014 22.6201 124.674 22.6201C125.409 22.6201 126.052 22.4499 126.599 22.1104C127.164 21.7521 127.607 21.2807 127.928 20.6963C128.267 20.0928 128.437 19.4324 128.438 18.7158V18.6309H125.155ZM82.4639 13.2832C81.6343 13.2833 80.9084 13.4811 80.2861 13.877C79.6825 14.2731 79.2201 14.8207 78.8994 15.5186C78.5788 16.1974 78.418 16.9799 78.418 17.8662C78.418 18.8282 78.5977 19.6586 78.9561 20.3564C79.3332 21.0352 79.8234 21.5538 80.4268 21.9121C81.0491 22.2704 81.7189 22.4501 82.4355 22.4502C83.2466 22.4502 83.954 22.2515 84.5576 21.8555C85.1801 21.4405 85.6709 20.8844 86.0293 20.1865C86.3876 19.4887 86.5664 18.696 86.5664 17.8096C86.5663 16.8856 86.3876 16.0842 86.0293 15.4053C85.6709 14.7262 85.1801 14.207 84.5576 13.8486C83.9541 13.4716 83.2559 13.2832 82.4639 13.2832ZM95.9561 22.168H100.257C101.445 22.168 102.35 21.904 102.973 21.376C103.595 20.8478 103.906 20.0553 103.906 18.999C103.906 17.9429 103.576 17.1511 102.916 16.623C102.256 16.095 101.351 15.8311 100.2 15.8311H95.9561V22.168ZM15 9C15.1786 9 15.3569 9.08957 15.4463 9.29883L15.6553 9.86719C16.4295 11.962 18.0674 13.5784 20.1221 14.3564L20.6875 14.5654C21.1044 14.7151 21.1044 15.284 20.6875 15.4336L20.1221 15.6436C18.0377 16.4216 16.4295 18.0671 15.6553 20.1318L15.4463 20.7002C15.357 20.9097 15.1787 21 15 21C14.8214 21 14.643 20.9097 14.5537 20.7002L14.3447 20.1318C13.5705 18.0371 11.9325 16.4216 9.87793 15.6436L9.3125 15.4336C8.89571 15.2839 8.89565 14.715 9.3125 14.5654L9.87793 14.3564C11.9623 13.5784 13.5705 11.932 14.3447 9.86719L14.5537 9.29883C14.6431 9.08956 14.8214 9.00001 15 9ZM95.9561 13.1426H99.7471C100.841 13.1426 101.653 12.9165 102.181 12.4639C102.709 11.9923 102.973 11.3227 102.973 10.4551C102.973 9.60632 102.709 8.95561 102.181 8.50293C101.653 8.03138 100.822 7.7959 99.6904 7.7959H95.9561V13.1426ZM13.0615 5.08008C12.4686 5.19869 11.8937 5.37198 11.3438 5.59277H11.3418C10.7018 5.84632 10.0947 6.16773 9.52832 6.54395C9.36267 6.65437 9.20053 6.76899 9.04102 6.88965C8.66076 7.17384 8.30111 7.48698 7.96582 7.82227C7.63051 8.15758 7.31741 8.51718 7.0332 8.89746C6.9105 9.05697 6.79589 9.22107 6.6875 9.38672C6.31128 9.95312 5.98988 10.5563 5.73633 11.1963V11.2002C5.5155 11.7502 5.34224 12.325 5.22363 12.918H1.14355C1.1517 12.863 1.15982 12.806 1.16797 12.751C1.30499 11.8716 1.52201 11.0182 1.81445 10.2002C1.97395 9.75447 2.15411 9.3207 2.35449 8.89746C2.46897 8.65627 2.59104 8.41866 2.71777 8.18359C3.0388 7.59679 3.40305 7.03463 3.80176 6.50098C4.17589 6.00214 4.58301 5.52782 5.02051 5.08008L5.22363 4.87695H5.22559C5.67133 4.43942 6.14359 4.03237 6.64453 3.6582C7.17623 3.25944 7.73926 2.89811 8.32617 2.5791C8.56114 2.44835 8.79788 2.32731 9.04102 2.21289C9.46422 2.01049 9.89806 1.83028 10.3438 1.67285C11.1618 1.37837 12.0152 1.16143 12.8945 1.02441C12.9495 1.01627 13.0065 1.00815 13.0615 1V5.08008ZM17.25 1.02441C18.1292 1.16143 18.9819 1.37842 19.7998 1.67285C20.2456 1.83031 20.6792 2.01045 21.1025 2.21289C21.3458 2.32738 21.5832 2.44826 21.8184 2.5791C22.4051 2.89803 22.9675 3.25957 23.499 3.6582C23.9999 4.03232 24.4723 4.43948 24.918 4.87695H24.9209L25.123 5.08203C25.5606 5.52778 25.9676 6.00207 26.3418 6.50098C26.7405 7.03463 27.1047 7.59474 27.4258 8.18359C27.5526 8.41874 27.6755 8.65618 27.79 8.89746C27.9904 9.32067 28.1696 9.7545 28.3291 10.2002C28.6215 11.0182 28.8386 11.8716 28.9756 12.751C28.9837 12.806 28.9919 12.863 29 12.918H24.9209C24.8023 12.325 24.6281 11.7503 24.4072 11.2002V11.1963C24.1537 10.5562 23.8323 9.95316 23.4561 9.38672C23.3477 9.22107 23.2331 9.05697 23.1104 8.89746C22.8262 8.51721 22.513 8.15755 22.1777 7.82227C21.8424 7.48696 21.4828 7.17385 21.1025 6.88965C20.943 6.76899 20.7809 6.65437 20.6152 6.54395C20.0489 6.16776 19.4417 5.8463 18.8018 5.59277H18.7998C18.2498 5.37194 17.675 5.19869 17.082 5.08008V1C17.1372 1.00817 17.1948 1.01624 17.25 1.02441ZM136.972 4.39941C137.556 4.39945 138.056 4.60673 138.471 5.02148C138.886 5.41758 139.094 5.90845 139.094 6.49316C139.094 7.07774 138.886 7.57731 138.471 7.99219C138.056 8.40704 137.556 8.61519 136.972 8.61523C136.387 8.61523 135.887 8.40715 135.472 7.99219C135.057 7.57735 134.85 7.07763 134.85 6.49316C134.85 5.90849 135.057 5.41757 135.472 5.02148C135.887 4.60652 136.387 4.39941 136.972 4.39941Z" fill="#2563EB"/>
</svg>
