<svg width="156" height="30" viewBox="0 0 156 30" fill="none" xmlns="http://www.w3.org/2000/svg">
<path d="M12.8943 1.02454C12.0149 1.16155 11.1622 1.37832 10.3442 1.6728C9.89833 1.83027 9.46479 2.01022 9.04147 2.21268C8.79811 2.3272 8.56088 2.44785 8.3257 2.57873C7.73878 2.89775 7.1764 3.25971 6.64469 3.65849C6.14366 4.03272 5.67125 4.43967 5.22544 4.8773H5.22339C5.18863 4.91207 5.15591 4.94479 5.12114 4.97955C5.08842 5.01227 5.0557 5.04499 5.02093 5.07976C4.5833 5.52761 4.17634 6.00205 3.8021 6.50102C3.40331 7.03477 3.0393 7.59714 2.71823 8.18405C2.59144 8.41922 2.46873 8.65644 2.35421 8.89775C2.1538 9.32106 1.97384 9.7546 1.81432 10.2004C1.52189 11.0184 1.30511 11.8712 1.1681 12.7505C1.15991 12.8057 1.15173 12.863 1.14355 12.9182H5.22339C5.342 12.3252 5.51583 11.7505 5.73669 11.2004V11.1963C5.99028 10.5562 6.31135 9.95297 6.68763 9.3865C6.79602 9.22086 6.91054 9.05726 7.03324 8.89775C7.3175 8.51738 7.63039 8.15746 7.96578 7.82209C8.30116 7.48671 8.66109 7.17382 9.04147 6.88957C9.20098 6.76892 9.36254 6.6544 9.52818 6.54397C10.0947 6.16769 10.702 5.84663 11.3421 5.59305H11.3442C11.8943 5.37219 12.4689 5.19836 13.062 5.07976V1C13.0068 1.00818 12.9495 1.01636 12.8943 1.02454Z" fill="#2563EB"/>
<path d="M29.1438 20.7564V17.0815C29.0886 17.0897 29.0313 17.0979 28.9761 17.1061C28.1151 17.239 27.2808 17.4517 26.4791 17.7359L26.4443 17.7707L26.4259 17.7543C25.9801 17.9118 25.5466 18.0918 25.1233 18.2942C24.8799 18.4087 24.6427 18.5294 24.4075 18.6603C23.8206 18.9793 23.2582 19.3413 22.7265 19.74C22.2254 20.1143 21.753 20.5212 21.3072 20.9588C21.2397 21.0243 21.1702 21.0938 21.1027 21.1633C20.6651 21.6092 20.2581 22.0836 19.8839 22.5826C19.4851 23.1163 19.1231 23.6766 18.8 24.2635C18.6732 24.5008 18.5526 24.7359 18.436 24.9793C18.2356 25.4026 18.0556 25.8361 17.8961 26.282L17.9145 26.3004L17.8757 26.3392C17.5934 27.1388 17.3828 27.9732 17.2499 28.8321C17.2417 28.8873 17.2335 28.9445 17.2253 28.9997H21.3052C21.3399 28.8218 21.3808 28.646 21.4258 28.4742C21.5322 28.0652 21.6631 27.6644 21.8185 27.2779C22.0741 26.6398 22.3931 26.0345 22.7674 25.468C22.8778 25.3024 22.9923 25.1388 23.113 24.9793C23.6836 24.2186 24.3625 23.5396 25.1233 22.9691C25.2828 22.8484 25.4464 22.7339 25.612 22.6255C26.1785 22.2472 26.7859 21.9282 27.426 21.6725C27.8125 21.5171 28.2113 21.3862 28.6182 21.282C28.792 21.237 28.9679 21.1961 29.1438 21.1593V20.9588V20.7564Z" fill="#2563EB"/>
<path d="M12.9184 28.9997H8.83861C8.80384 28.8218 8.76294 28.646 8.71795 28.4742C8.61161 28.0652 8.48072 27.6644 8.3253 27.2779C8.06967 26.6398 7.75065 26.0345 7.37641 25.468C7.26598 25.3024 7.15145 25.1388 7.0308 24.9793C6.46023 24.2186 5.78128 23.5396 5.02053 22.9691C4.86102 22.8484 4.69742 22.7339 4.53177 22.6255C3.9653 22.2472 3.35792 21.9282 2.71783 21.6725C2.33132 21.5171 1.93253 21.3862 1.52557 21.282C1.35175 21.237 1.17587 21.1961 1 21.1593V17.0815C1.05522 17.0897 1.11248 17.0979 1.16769 17.1061C2.02865 17.239 2.86302 17.4517 3.66468 17.7359L3.71785 17.7543C4.16366 17.9118 4.59721 18.0918 5.02053 18.2942C5.26389 18.4087 5.50111 18.5294 5.73629 18.6603C6.32322 18.9793 6.8856 19.3413 7.41731 19.74C7.91834 20.1143 8.39074 20.5212 8.83656 20.9588C8.90405 21.0243 8.97358 21.0938 9.04106 21.1633C9.4787 21.6092 9.88566 22.0836 10.2599 22.5826C10.6587 23.1163 11.0207 23.6766 11.3417 24.2635H11.3438C11.4706 24.4987 11.5912 24.7359 11.7078 24.9793C11.9082 25.4026 12.0882 25.8361 12.2477 26.282L12.2293 26.3004L12.2681 26.3392C12.5503 27.1388 12.761 27.9732 12.8939 28.8321C12.9021 28.8873 12.9103 28.9445 12.9184 28.9997Z" fill="#2563EB"/>
<path d="M28.9757 12.7505C28.8387 11.8712 28.6219 11.0184 28.3295 10.2004C28.1699 9.7546 27.99 9.32106 27.7896 8.89775C27.675 8.65644 27.5523 8.41922 27.4256 8.18405C27.1045 7.59509 26.7405 7.03477 26.3417 6.50102C25.9674 6.00205 25.5605 5.52761 25.1228 5.0818L24.9204 4.8773H24.9183C24.4725 4.43967 24.0001 4.03272 23.4991 3.65849C22.9674 3.25971 22.405 2.89775 21.8181 2.57873C21.5829 2.44785 21.3457 2.3272 21.1023 2.21268C20.679 2.01022 20.2455 1.83027 19.7996 1.6728C18.9816 1.37832 18.1288 1.16155 17.2495 1.02454C17.1943 1.01636 17.137 1.00818 17.0818 1V5.07976C17.6748 5.19836 18.2495 5.37219 18.7996 5.59305H18.8017C19.4418 5.84663 20.0491 6.16769 20.6156 6.54397C20.7812 6.6544 20.9428 6.76892 21.1023 6.88957C21.4827 7.17382 21.8426 7.48671 22.178 7.82209C22.5134 8.15746 22.8263 8.51738 23.1105 8.89775C23.2332 9.05726 23.3478 9.22086 23.4561 9.3865C23.8324 9.95297 24.1535 10.5562 24.4071 11.1963V11.2004C24.628 11.7505 24.8018 12.3252 24.9204 12.9182H29.0002C28.992 12.863 28.9839 12.8057 28.9757 12.7505Z" fill="#2563EB"/>
<path className="logo__star" d="M15.0001 8.99976C14.8215 8.99976 14.6428 9.08953 14.5535 9.29901L14.345 9.86759C13.5708 11.9324 11.9628 13.5783 9.87843 14.3564L9.31266 14.5658C8.89578 14.7155 8.89578 15.284 9.31266 15.4337L9.87843 15.6431C11.9331 16.4212 13.5708 18.0372 14.345 20.1319L14.5535 20.7005C14.6428 20.91 14.8215 20.9998 15.0001 20.9998C15.1788 20.9998 15.3574 20.91 15.4468 20.7005L15.6552 20.1319C16.4294 18.0671 18.0374 16.4212 20.1218 15.6431L20.6876 15.4337C21.1045 15.284 21.1045 14.7155 20.6876 14.5658L20.1218 14.3564C18.0672 13.5783 16.4294 11.9624 15.6552 9.86759L15.4468 9.29901C15.3574 9.08953 15.1788 8.99976 15.0001 8.99976Z" fill="#2563EB"/>
<path d="M141.738 24.8832V10.85H144.85L144.907 12.7739C145.378 12.0383 146.029 11.4819 146.859 11.1046C147.689 10.7085 148.556 10.5105 149.462 10.5105C151.103 10.5105 152.433 11.0292 153.451 12.0666C154.47 13.104 154.979 14.6318 154.979 16.65V24.8832H151.81V17.0461C151.81 15.8578 151.527 14.9242 150.961 14.2451C150.396 13.5661 149.566 13.2266 148.472 13.2266C147.378 13.2266 146.51 13.5944 145.869 14.33C145.246 15.0468 144.935 16.0276 144.935 17.2725V24.8832H141.738Z" fill="#2563EB"/>
<path d="M136.972 8.61479C136.387 8.61479 135.887 8.40731 135.472 7.99235C135.057 7.57739 134.85 7.07755 134.85 6.49283C134.85 5.90812 135.057 5.41771 135.472 5.02161C135.887 4.60665 136.387 4.39917 136.972 4.39917C137.556 4.39917 138.056 4.60665 138.471 5.02161C138.886 5.41771 139.094 5.90812 139.094 6.49283C139.094 7.07755 138.886 7.57739 138.471 7.99235C138.056 8.40731 137.556 8.61479 136.972 8.61479ZM135.359 24.8831V10.8499H138.584V24.8831H135.359Z" fill="#2563EB"/>
<path d="M123.854 25.2227C122.986 25.2227 122.175 25.0624 121.421 24.7417C120.685 24.4022 120.091 23.9118 119.638 23.2705C119.204 22.6292 118.987 21.8653 118.987 20.9788C118.987 19.9226 119.251 19.0643 119.78 18.4042C120.308 17.744 121.024 17.263 121.93 16.9612C122.835 16.6406 123.835 16.4803 124.929 16.4803H128.437C128.437 15.7258 128.315 15.1128 128.069 14.6412C127.824 14.1508 127.485 13.7925 127.051 13.5661C126.617 13.3209 126.108 13.1983 125.523 13.1983C124.769 13.1983 124.108 13.3681 123.543 13.7076C122.977 14.0471 122.628 14.6035 122.496 15.3768H119.27C119.365 14.3583 119.704 13.4907 120.289 12.7739C120.892 12.0383 121.656 11.4819 122.581 11.1046C123.505 10.7085 124.495 10.5105 125.551 10.5105C126.909 10.5105 128.032 10.7651 128.918 11.2744C129.824 11.7648 130.503 12.4533 130.955 13.3398C131.427 14.2263 131.663 15.2542 131.663 16.4237V20.6959C131.682 21.2052 131.804 21.573 132.031 21.7993C132.276 22.0256 132.653 22.1482 133.162 22.1671V24.8832C132.37 24.8832 131.691 24.7983 131.125 24.6286C130.559 24.4588 130.088 24.2042 129.71 23.8647C129.352 23.5252 129.06 23.0819 128.833 22.5349C128.381 23.2894 127.711 23.9307 126.825 24.4588C125.957 24.9681 124.967 25.2227 123.854 25.2227ZM124.674 22.6198C125.41 22.6198 126.051 22.45 126.598 22.1105C127.164 21.7522 127.607 21.2806 127.928 20.6959C128.268 20.0923 128.437 19.4321 128.437 18.7154V18.6305H125.155C124.665 18.6305 124.193 18.6965 123.741 18.8286C123.288 18.9606 122.93 19.1775 122.665 19.4793C122.401 19.7622 122.269 20.1583 122.269 20.6676C122.269 21.3466 122.505 21.8465 122.977 22.1671C123.448 22.4689 124.014 22.6198 124.674 22.6198Z" fill="#2563EB"/>
<path d="M109.77 24.8832V10.85H112.882L112.939 13.1417C113.41 12.3118 114.042 11.6705 114.834 11.2178C115.645 10.7463 116.579 10.5105 117.635 10.5105V13.8773H116.758C115.476 13.8773 114.523 14.198 113.901 14.8393C113.278 15.4806 112.967 16.4803 112.967 17.8383V24.8832H109.77Z" fill="#2563EB"/>
<path d="M92.7307 24.8843V5.07935H100.002C102.001 5.07935 103.539 5.53203 104.614 6.4374C105.708 7.34277 106.255 8.53106 106.255 10.0023C106.255 11.0963 105.981 12.0016 105.434 12.7184C104.887 13.4351 104.208 13.9444 103.397 14.2462C104.114 14.5103 104.755 14.8875 105.321 15.3779C105.887 15.8683 106.33 16.4436 106.651 17.1038C106.991 17.7639 107.16 18.4901 107.16 19.2823C107.16 20.3386 106.915 21.2911 106.425 22.1399C105.934 22.9887 105.208 23.6583 104.246 24.1487C103.303 24.6391 102.124 24.8843 100.709 24.8843H92.7307ZM95.9562 22.1682H100.257C101.445 22.1682 102.35 21.9041 102.973 21.376C103.595 20.8478 103.907 20.0556 103.907 18.9994C103.907 17.9431 103.576 17.1509 102.916 16.6228C102.256 16.0947 101.351 15.8306 100.2 15.8306H95.9562V22.1682ZM95.9562 13.1428H99.7475C100.841 13.1428 101.653 12.9164 102.181 12.4638C102.709 11.9922 102.973 11.3226 102.973 10.455C102.973 9.60619 102.709 8.95545 102.181 8.50277C101.653 8.03122 100.823 7.79545 99.6909 7.79545H95.9562V13.1428Z" fill="#2563EB"/>
<path d="M82.4076 25.2227C81.0307 25.2227 79.7952 24.9209 78.7012 24.3174C77.6072 23.7138 76.7395 22.865 76.0982 21.771C75.4758 20.6582 75.1646 19.3567 75.1646 17.8666C75.1646 16.3388 75.4946 15.0279 76.1548 13.9339C76.815 12.8399 77.7015 12.0006 78.8144 11.4159C79.9273 10.8123 81.1627 10.5105 82.5208 10.5105C83.8978 10.5105 85.1332 10.8123 86.2272 11.4159C87.3401 12.0006 88.2172 12.8399 88.8585 13.9339C89.5187 15.0279 89.8488 16.3388 89.8488 17.8666C89.8488 19.2812 89.5281 20.545 88.8868 21.6578C88.2644 22.7707 87.3873 23.6478 86.2555 24.2891C85.1427 24.9115 83.86 25.2227 82.4076 25.2227ZM82.4359 22.45C83.247 22.45 83.9543 22.252 84.5579 21.8559C85.1804 21.4409 85.6708 20.8845 86.0292 20.1866C86.3876 19.4887 86.5668 18.6965 86.5668 17.81C86.5668 16.8858 86.3876 16.0842 86.0292 15.4051C85.6708 14.7261 85.1804 14.2074 84.5579 13.849C83.9543 13.4718 83.2564 13.2832 82.4642 13.2832C81.6343 13.2832 80.9081 13.4812 80.2856 13.8773C79.6821 14.2734 79.2199 14.8204 78.8993 15.5183C78.5786 16.1973 78.4183 16.9801 78.4183 17.8666C78.4183 18.8286 78.5975 19.6585 78.9559 20.3564C79.3331 21.0354 79.8235 21.5541 80.4271 21.9125C81.0496 22.2709 81.7192 22.45 82.4359 22.45Z" fill="#2563EB"/>
<path d="M59.6484 24.8832V10.85H62.7607L62.8173 12.7739C63.2888 12.0383 63.9396 11.4819 64.7695 11.1046C65.5995 10.7085 66.4671 10.5105 67.3725 10.5105C69.0135 10.5105 70.3433 11.0292 71.3619 12.0666C72.3804 13.104 72.8897 14.6318 72.8897 16.65V24.8832H69.7209V17.0461C69.7209 15.8578 69.4379 14.9242 68.8721 14.2451C68.3062 13.5661 67.4763 13.2266 66.3823 13.2266C65.2882 13.2266 64.4206 13.5944 63.7793 14.33C63.1568 15.0468 62.8456 16.0276 62.8456 17.2725V24.8832H59.6484Z" fill="#2563EB"/>
<path d="M43.623 24.8832V10.85H46.7353L46.7919 12.7739C47.2635 12.0383 47.9142 11.4819 48.7441 11.1046C49.5741 10.7085 50.4417 10.5105 51.3471 10.5105C52.9881 10.5105 54.3179 11.0292 55.3365 12.0666C56.355 13.104 56.8643 14.6318 56.8643 16.65V24.8832H53.6955V17.0461C53.6955 15.8578 53.4125 14.9242 52.8467 14.2451C52.2808 13.5661 51.4509 13.2266 50.3569 13.2266C49.2629 13.2266 48.3952 13.5944 47.7539 14.33C47.1314 15.0468 46.8202 16.0276 46.8202 17.2725V24.8832H43.623Z" fill="#2563EB"/>
<path d="M37.0005 24.8843V5.07935H40.2259V24.8843H37.0005Z" fill="#2563EB"/>
</svg>
